<svg version="1.1" xmlns="http://www.w3.org/2000/svg" xml:space="preserve">
  <symbol id="logo" viewBox="0 0 352 294.5">
    <g>
      <path d="M66.1,79.1c-1.1,0.1-2.2,0.2-3.3,0.3c-1.9,0.2-3.7,0.5-5.6,0.8c-2.9,0.4-4.6-0.9-4.7-3.5c0-1.7,1.3-3.2,3.4-3.5
        c4.3-0.6,8.6-1.2,13-1.7c1.1-0.1,1.7-0.7,2-1.7c0.6-1.5,1.2-3,2-4.3c2.5-4.2,7.1-4.7,10.4-1.1c1,1.1,1.9,2.4,2.6,3.7
        c0.4,0.8,0.8,1,1.6,0.9c6-0.8,11.9-1.5,17.9-2.3c0.9-0.1,1.8-0.3,2.7-0.3c1-0.1,1.4-0.5,1.3-1.6c-0.3-3-0.6-6-0.8-9
        c-0.4-6-0.2-11.9,2.9-17.2c2.2-3.8,5.3-6.6,8.9-8.9c6.2-4,11.8-8.6,17.2-13.7c4.1-3.9,8.2-7.9,12.3-11.8c0.7-0.7,1.3-1.6,1.8-2.4
        c1.4-1.9,2.8-2.3,5-1.4c0.8,0.4,1.7,0.8,2.4,1.4c5.7,5,12.5,8.3,19,12.1c7.3,4.3,14.8,8.5,22.2,12.8c3.1,1.8,5.1,4.6,6.7,7.8
        c2.6,5.1,3.9,10.6,4.9,16.1c0.1,0.3,0.1,0.6,0.2,0.9c0.1,1,0.5,1.4,1.6,1.2c3.9-0.6,7.9-1,11.8-1.5c8.6-1.1,17.3-2.2,25.9-3.3
        c8-1,16.1-2.1,24.1-3.1c2.2-0.3,3.9,1,4.2,2.9c0.3,2.2-1,3.9-3.3,4.2c-10.2,1.3-20.4,2.6-30.6,3.9c-6.9,0.9-13.7,1.8-20.6,2.7
        c-3.8,0.5-7.7,0.9-11.6,1.5c-1.9,0.2-1.9,0.3-2,2.1c-0.1,1.2-0.1,2.4,0,3.6c0.1,1.9,1.2,3.2,3,3.9c2.3,0.8,4.5,1.5,6.8,2.2
        c4.1,1.3,7.8,3.1,11,5.9c1.4,1.2,2.1,2.7,2.1,4.5c0.1,2.5-0.4,4.9-1.5,7.1c-1.7,3.4-3.6,6.7-5.6,10c-0.6,1-1.6,1.9-2.5,2.7
        c-1.2,1-2.6,1.3-4.2,1.1c-3.4-0.5-6.5-1.8-9.4-3.8c-1-0.7-1.7-0.6-2.4,0.3c-0.7,0.9-1.6,1.7-1.8,2.8c-1.6,5.7-5.2,9.9-9.3,13.9
        c-4.4,4.2-9.1,8-15,9.9c-0.5,0.2-1.1,0.4-1.6,0.6c-0.1,0-0.1,0.1-0.3,0.4c0.6,0.1,1,0.3,1.5,0.3c2,0,4,0,6,0
        c3.4,0.1,5.8,3.1,5.1,6.5c-0.4,2.2-0.5,2.2,1.8,2.9c8.3,2.4,14.5,7.6,19.3,14.6c5.6,8.3,8.6,17.7,10.8,27.4c0.5,2.2-0.5,4-2.4,4.5
        c-2.2,0.5-4-0.6-4.5-3c-1.7-6.7-3.5-13.3-6.6-19.5c-2.5-4.9-5.6-9.4-10-12.9c-3-2.3-6.3-3.9-10-4.7c-1.4-0.3-2.9-0.8-4.2-1.4
        c-2.3-1.1-3.3-3.4-2.6-5.8c0.4-1.4,0.4-1.4-1.1-1.4c-3.4,0-6.8-0.3-9.8-2.2c-2.8-1.8-3.9-4.9-2.9-7.7c0.8-2.1,2.4-3.1,4.4-3.8
        c1.4-0.5,2.8-0.8,4.3-1.2c3.1-0.9,6-2.2,8.4-4.3c2.9-2.6,5.9-5.3,8.5-8.3c1.4-1.5,2.4-3.5,3.1-5.5c1.2-3.5,3.1-6.3,6.1-8.6
        c2.3-1.7,4.6-2,7.2-0.7c1.7,0.9,3.4,1.9,5.2,2.8c2.6,1.3,3.1,1.3,4.5-1.2c1.7-3,3.1-6.1,4.5-9.2c0.5-1.1,0.2-1.9-0.8-2.7
        c-2.9-2.2-6.4-3.1-9.8-4.2c-1.9-0.6-3.9-1.2-5.7-2.1c-3.9-1.9-5.9-5.2-6.3-9.4c-0.1-1.2-0.1-2.4-0.1-3.6c0-1-0.3-1.5-1.4-1.3
        c-3.7,0.5-7.4,1-11.2,1.5c-7.3,0.9-14.5,1.9-21.8,2.8c-7.5,1-15,1.9-22.5,2.9c-7.4,1-14.8,1.9-22.1,2.9c-3.3,0.5-2.9-0.3-3,3.3
        c-0.1,3.7-1.2,6.8-4.9,8.2c-1.4,0.6-3,0.6-4.6,0.8c-2,0.2-4,0-6,0.3c-1,0.1-2.1,0.8-2.8,1.6c-1.4,1.4-1.4,2.3-0.3,4
        c1.1,1.7,2.4,3.3,3.6,5c2,2.9,4.9,3.7,8.2,3.3c2.9-0.3,5.9-0.8,8.8-1.2c1.4-0.2,2.8-0.4,4.2-0.4c3.2,0,5.1,2.5,4.3,5.7
        c-0.1,0.5-0.2,0.9-0.4,1.4c-0.8,1.8-0.3,3.4,0.9,4.8c3.1,3.3,6.2,6.4,10.1,8.9c2.7,1.7,5.7,2.5,8.7,3.3c0.5,0.1,1.1,0.3,1.6,0.5
        c2.6,0.9,4.4,2.6,4.6,5.5c0.1,2.7-1.3,4.6-3.5,6.1c-2.2,1.4-4.7,1.9-7.2,2c-0.6,0-1.1,0-1.7,0c-2.1,0-2.1,0-1.7,2.1
        c0.4,2-0.6,4.1-2.6,5.1c-1.2,0.6-2.5,1.1-3.8,1.4c-6.8,1.4-12.1,5.1-16.2,10.6c-4.7,6.3-7.4,13.5-9.6,20.9c-0.6,2-1.2,4.1-1.7,6.1
        c-0.1,0.5,0,1.1,0.1,1.7c1.8,8.9,3.6,17.8,5.6,26.7c2.5,11.4,5.5,22.6,9.2,33.7c0.5,1.4,1.1,2.4,2.6,3.1c3,1.4,4.6,4.1,5.6,7.2
        c1.3,4.3,1.2,8.7,0.7,13.1c-0.6,5.2-1.9,10.3-4.2,15.1c-1.1,2.3-2.2,4.5-3.4,6.8c-2.2,4.5-5.8,6.7-10.9,6.7c-6,0-11.2-1.7-15-6.6
        c-2.1-2.7-3.5-5.9-4.3-9.2c-1.1-4.7-2.1-9.5-3.2-14.3c-0.4-1.6-0.9-3.2-1.5-4.7c-0.7-1.7-1.8-3.2-3.3-4.3
        c-4.9-3.6-7.1-8.5-7.2-14.5c-0.2-6.6,1.7-12.8,4.2-18.7c2.6-6,5.3-12,8.2-17.9c1.5-3,1-5.7-0.1-8.5c-2.6-6.4-7.6-9.3-14.2-10.1
        c-5.3-0.6-10.5-0.2-15.8-0.1c-4.3,0.1-8.6,0.2-12.8-0.2c-4.5-0.5-8.3-2.9-12.2-5.1c-3.5-2-7-4.1-10.7-6c-5.1-2.6-10.5-2.8-16-1.4
        c-1.8,0.4-3.6,0.8-5.4,0.9c-2.7,0.1-4.8-1.4-5.7-4c-0.4-1-0.7-2.2-0.8-3.3c-0.5-7.1-0.2-14,3.9-20.2c2.3-3.5,5.1-6.5,8.3-9.1
        c4.2-3.3,8.5-6.6,12.8-9.8c5.7-4.2,10.4-9.3,15.2-14.5c3.8-4.1,7.5-8.3,11.1-12.6c5.1-6.2,9.9-12.6,14.1-19.4
        c0.3-0.4,0.5-0.9,0.7-1.4C66.2,79.4,66.2,79.2,66.1,79.1z M117,239.6c-0.1-0.5-0.1-0.8-0.2-1.1c-1.2-4.2-2.5-8.4-3.6-12.7
        c-3.7-13.9-6.7-28-9.4-42.2c-1.7-9-2.7-18.1-3.6-27.2c-0.5-5.8-1-11.6-2-17.4c-0.9-5.4-2.5-10.7-3.8-16c-1.9-8.1-3.7-16.1-5.8-24.1
        c-1.8-6.9-3.9-13.7-5.9-20.5c-0.3-1.1-0.9-1.5-2-1.3c-1.3,0.2-2.6,0.4-3.9,0.5c-1.1,0.1-1.7,0.6-2.2,1.6
        c-3.8,7.4-8.5,14.2-13.7,20.6c-4.6,5.6-9.2,11.2-14.1,16.6c-5.8,6.5-11.8,12.8-19,17.9c-4.2,3-8.3,6.2-12.2,9.5
        c-3.2,2.6-5.8,5.7-7.3,9.7c-1.3,3.4-1.4,6.9-1.3,10.4c0.1,3.4,0.3,2.9,2.9,2.2c8.4-2.3,16.3-1.2,23.9,3.1c3.6,2,7.1,4.2,10.7,6.2
        c2.5,1.4,5,2.9,7.9,3c4.9,0.2,9.8,0.1,14.6,0c5-0.2,10.1-0.3,15.1,0.6c10.6,1.8,17.5,8.4,19.6,19.3c0.4,2.1,0.2,4.3,0.7,6.3
        c1,4.8,2.2,9.6,3.3,14.4c1.4,5.7,2.7,11.4,4.1,17c0.2,1.1,0.7,1.6,1.8,1.8c1.5,0.3,2.9,1,4.4,1.6
        C116.4,239.4,116.6,239.5,117,239.6z M115.6,51.7c0.3,4.1,0.7,8.2,1,12.3c0.1,1,0.5,1.2,1.5,1.1c2.6-0.4,5.2-0.7,7.8-1
        c14.4-1.9,28.9-3.7,43.3-5.6c7.5-1,15-1.9,22.5-2.9c4.1-0.5,8.2-1.1,12.2-1.6c0.8-0.1,1.3-0.3,1.2-1.3c-0.8-5.6-2.2-11-4.9-16
        c-0.9-1.7-2.1-3.2-3.9-4.2c-6.8-3.9-13.7-7.7-20.4-11.7c-6.5-3.9-13.5-7.1-19.5-12.1c-0.2-0.2-0.9-0.1-1.1,0.2
        c-4.4,4.1-8.6,8.3-13,12.4c-5.5,5.2-11.4,10.1-17.8,14.2C118.6,39.4,115.4,44.6,115.6,51.7z M148.4,127c0-0.1,0-0.3,0-0.4
        c-0.4-0.2-0.8-0.3-1.2-0.5c-1.8-0.8-3.7-1.4-5.5-2.3c-5.4-2.8-9.6-7-13.6-11.5c-1.8-2-2.7-4.3-2.8-7c-0.1-1.7-0.1-1.7-1.8-1.4
        c-3.5,0.6-7.1,1-10.6,0.8c-2.9-0.2-5.6-0.9-7.8-2.9c-3.4-3.1-6.2-6.7-8-10.9c-0.5-1.2-0.9-2.8-0.7-4.1c1.1-5.3,4.2-9.2,10.1-10
        c2.2-0.3,4.5-0.2,6.8-0.3c2.1,0,2.5-0.4,2.5-2.5c0-1.1-0.4-1.4-1.5-1.2c-1.8,0.3-3.6,0.5-5.4,0.7c-6,0.8-12,1.6-18,2.4
        c-1,0.1-1.1,0.5-0.9,1.4c2.6,9.7,5.3,19.4,7.8,29.1c1.8,6.8,3.5,13.5,5.1,20.4c1.3,5.7,2.6,11.4,3.4,17.2c0.8,6,1.1,12.1,1.6,18.2
        c0,0.4,0.2,0.8,0.4,1.2c0.5-0.4,0.7-0.8,0.9-1.2c1.8-4.3,3.9-8.3,6.6-12.1c4.8-6.7,11-11.5,19.1-13.6c1.6-0.4,1.6-0.4,1.3-2.1
        c-0.5-3.4,0.5-7.4,5.8-7.1c1.7,0.1,3.4,0.1,5.2,0C147.5,127.2,147.9,127.1,148.4,127z M127.7,260c-0.2-1.2-0.3-2.9-0.7-4.6
        c-0.6-2.9-1.8-3.8-4.8-4.1c-3.5-0.3-6.5-1.7-8.6-4.6c-1.4-1.9-3.2-2.3-5.3-2.1c-4.5,0.5-9.1,4.7-10.3,9.5c-0.2,0.6-0.1,1.4,0.1,2.1
        c0.9,3,2,6,2.8,9c1,4.1,1.7,8.3,2.8,12.4c1.5,5.6,4.8,9.5,11.2,9.8c2.7,0.1,4.3-0.5,5.5-2.9c0.7-1.5,1.3-3,2.1-4.4
        C126.2,274.1,127.3,267.4,127.7,260z M97.2,214.3c-0.3,0.5-0.6,0.8-0.7,1.1c-1.9,4.5-4,8.9-5.7,13.5c-1.5,4-2.5,8.1-2.2,12.4
        c0.1,2.6,1,5,2.8,7c0.7,0.8,1.1,0.8,1.6-0.2c2.1-3.8,5-6.7,8.9-8.7c1.2-0.6,1.4-1.2,1.1-2.5c-1.7-7-3.4-14-5.1-21
        C97.7,215.5,97.5,215,97.2,214.3z"/>
    </g>
    <g>
      <path d="M164.9,214.6h-12.3v7.8h14.5v5.6h-21.9v-31.5h21.9v5.6h-14.6v6.8h12.3V214.6z"/>
      <path d="M182.2,221.5c0-0.6-0.3-1.1-1-1.5c-0.7-0.5-1.8-0.9-3.6-1.2c-2.7-0.5-4.8-1.4-6.2-2.5c-1.4-1.1-2.1-2.7-2.1-4.6
        c0-2.1,0.9-3.8,2.6-5.2c1.7-1.4,4.1-2.1,7-2.1c3.1,0,5.6,0.7,7.4,2.1c1.8,1.4,2.7,3.2,2.6,5.4l0,0.1H182c0-0.9-0.2-1.6-0.7-2.1
        c-0.5-0.5-1.2-0.7-2.3-0.7c-0.8,0-1.4,0.2-1.9,0.6c-0.5,0.4-0.8,1-0.8,1.6c0,0.6,0.3,1.1,0.9,1.6c0.6,0.4,1.8,0.8,3.6,1.2
        c2.9,0.6,5,1.4,6.3,2.5c1.4,1.1,2.1,2.7,2.1,4.7c0,2.1-0.9,3.8-2.8,5.2c-1.9,1.4-4.3,2-7.4,2c-3.2,0-5.7-0.8-7.6-2.4
        s-2.7-3.4-2.6-5.4l0-0.1h6.6c0,1.1,0.4,1.9,1,2.4c0.6,0.5,1.6,0.7,2.7,0.7c1,0,1.7-0.2,2.2-0.6
        C181.9,222.7,182.2,222.2,182.2,221.5z"/>
      <path d="M202.6,222.9c1,0,1.7-0.3,2.2-0.8c0.5-0.5,0.7-1.3,0.7-2.4h6.7l0,0.1c0.1,2.5-0.8,4.6-2.6,6.2c-1.8,1.6-4.1,2.4-7,2.4
        c-3.5,0-6.3-1.1-8.2-3.3c-1.9-2.2-2.9-5.1-2.9-8.6v-0.5c0-3.5,1-6.4,2.9-8.6c1.9-2.2,4.6-3.3,8.1-3.3c3,0,5.3,0.8,7.1,2.5
        s2.6,3.9,2.6,6.8l0,0.1h-6.7c0-1.1-0.2-2-0.7-2.7c-0.5-0.7-1.2-1-2.2-1c-1.4,0-2.4,0.6-2.9,1.7s-0.8,2.7-0.8,4.6v0.5
        c0,2,0.3,3.5,0.8,4.6S201.2,222.9,202.6,222.9z"/>
      <path d="M229.3,225.3c-0.7,1-1.7,1.8-2.8,2.4c-1.1,0.6-2.3,0.8-3.7,0.8c-2.4,0-4.3-0.8-5.7-2.3c-1.4-1.6-2.1-4-2.1-7.2v-14.3h7.3
        V219c0,1.3,0.2,2.3,0.7,2.9s1.2,1,2.1,1c0.8,0,1.5-0.1,2.1-0.3c0.6-0.2,1.1-0.5,1.5-1v-16.9h7.3V228h-6.4L229.3,225.3z"/>
      <path d="M248.8,198.8v5.8h4v5.1h-4v10.7c0,0.8,0.2,1.4,0.5,1.8s0.8,0.6,1.4,0.6c0.5,0,0.8,0,1.1,0c0.3,0,0.6-0.1,1-0.2l0.5,5.4
        c-0.8,0.2-1.5,0.3-2.2,0.4c-0.6,0.1-1.4,0.1-2.3,0.1c-2.4,0-4.2-0.6-5.5-1.9c-1.2-1.3-1.9-3.3-1.9-6.1v-10.8h-3.3v-5.1h3.3v-5.8
        H248.8z"/>
      <path d="M266.8,228.5c-3.4,0-6.2-1.1-8.2-3.2s-3.1-4.9-3.1-8.1v-0.8c0-3.6,0.9-6.5,2.8-8.7c1.9-2.3,4.5-3.4,8-3.4
        c3.2,0,5.7,1,7.5,2.9c1.8,1.9,2.7,4.5,2.7,7.7v3.8h-13.4l0,0.1c0.2,1.2,0.6,2.2,1.5,2.9c0.8,0.8,1.9,1.2,3.3,1.2
        c1.4,0,2.5-0.1,3.3-0.3c0.8-0.2,1.9-0.6,3.1-1.1l1.7,4.5c-1,0.7-2.3,1.4-4,1.9C270.4,228.2,268.7,228.5,266.8,228.5z M266.3,209.8
        c-1.1,0-1.8,0.4-2.4,1.1c-0.5,0.7-0.8,1.8-1,3l0.1,0.1h6.3v-0.6c0-1.2-0.2-2.1-0.7-2.7C268.1,210.2,267.3,209.8,266.3,209.8z"/>
      <path d="M287.2,199.2h-7.3v-4.9h7.3V199.2z M287.2,228h-7.3v-23.4h7.3V228z"/>
      <path d="M304.9,211.1l-2.7,0c-0.8,0-1.5,0.1-2.1,0.4c-0.5,0.3-0.9,0.7-1.2,1.2V228h-7.3v-23.4h6.9l0.3,3.4c0.5-1.2,1.1-2.2,1.9-2.9
        s1.8-1,2.8-1c0.3,0,0.7,0,1.1,0.1c0.4,0.1,0.7,0.1,1,0.2L304.9,211.1z"/>
      <path d="M306.6,216.1c0-3.5,1-6.4,3-8.6c2-2.2,4.8-3.3,8.3-3.3c3.6,0,6.4,1.1,8.3,3.3c2,2.2,3,5.1,3,8.6v0.5c0,3.5-1,6.4-3,8.6
        c-2,2.2-4.8,3.3-8.3,3.3c-3.6,0-6.4-1.1-8.4-3.3c-2-2.2-3-5.1-3-8.6V216.1z M313.9,216.6c0,2,0.3,3.5,0.9,4.6s1.7,1.7,3.1,1.7
        c1.4,0,2.4-0.6,3.1-1.7c0.6-1.1,0.9-2.7,0.9-4.6v-0.5c0-1.9-0.3-3.4-0.9-4.6c-0.6-1.1-1.7-1.7-3.1-1.7c-1.4,0-2.5,0.6-3.1,1.7
        s-0.9,2.7-0.9,4.6V216.6z"/>
      <path d="M344.6,221.5c0-0.6-0.3-1.1-1-1.5c-0.7-0.5-1.8-0.9-3.6-1.2c-2.7-0.5-4.8-1.4-6.2-2.5c-1.4-1.1-2.1-2.7-2.1-4.6
        c0-2.1,0.9-3.8,2.6-5.2c1.7-1.4,4.1-2.1,7-2.1c3.1,0,5.6,0.7,7.4,2.1s2.7,3.2,2.6,5.4l0,0.1h-7.1c0-0.9-0.2-1.6-0.7-2.1
        c-0.5-0.5-1.2-0.7-2.3-0.7c-0.8,0-1.4,0.2-1.9,0.6s-0.8,1-0.8,1.6c0,0.6,0.3,1.1,0.9,1.6s1.8,0.8,3.6,1.2c2.9,0.6,5,1.4,6.3,2.5
        c1.4,1.1,2.1,2.7,2.1,4.7c0,2.1-0.9,3.8-2.8,5.2c-1.9,1.4-4.3,2-7.4,2c-3.2,0-5.7-0.8-7.6-2.4s-2.7-3.4-2.6-5.4l0-0.1h6.6
        c0,1.1,0.4,1.9,1,2.4c0.6,0.5,1.6,0.7,2.7,0.7c1,0,1.7-0.2,2.2-0.6S344.6,222.2,344.6,221.5z"/>
    </g>
    <g>
      <path d="M146.3,256.9v13.2h-1.1v-30.7h9.6c3.2,0,5.6,0.8,7.3,2.4s2.6,3.7,2.6,6.4c0,2.7-0.9,4.8-2.6,6.4c-1.7,1.6-4.2,2.4-7.4,2.4
        H146.3z M146.3,255.8h8.5c2.9,0,5.1-0.7,6.6-2.2c1.5-1.4,2.2-3.3,2.2-5.4c0-2.2-0.7-4.1-2.2-5.5c-1.5-1.4-3.7-2.2-6.6-2.2h-8.5
        V255.8z"/>
      <path d="M168.4,258.3c0-3.3,0.9-6.1,2.8-8.2c1.8-2.1,4.3-3.2,7.2-3.2c3,0,5.4,1.1,7.2,3.2c1.9,2.1,2.8,4.9,2.8,8.2v0.9
        c0,3.4-0.9,6.1-2.8,8.2c-1.8,2.1-4.2,3.2-7.2,3.2c-3,0-5.4-1.1-7.2-3.2s-2.8-4.9-2.8-8.2V258.3z M169.6,259.1
        c0,2.9,0.8,5.3,2.4,7.3c1.6,2,3.8,3,6.5,3c2.7,0,4.8-1,6.4-3c1.6-2,2.4-4.4,2.4-7.3v-0.9c0-2.8-0.8-5.2-2.4-7.2c-1.6-2-3.8-3-6.4-3
        c-2.7,0-4.8,1-6.4,3c-1.6,2-2.4,4.4-2.4,7.2V259.1z"/>
      <path d="M203.9,248.1l-1.5-0.1c-2,0-3.7,0.7-5,2s-2.1,3-2.5,5.2v15h-1.1v-22.8h0.9l0.2,4v0.8c0.6-1.6,1.6-2.9,2.8-3.8
        c1.3-0.9,2.8-1.4,4.6-1.4c0.3,0,0.6,0,0.9,0.1c0.3,0,0.5,0.1,0.7,0.2L203.9,248.1z"/>
      <path d="M211,241.1v6.2h5.6v1.2H211v15.8c0,1.9,0.3,3.2,0.9,4s1.5,1.2,2.5,1.2c0.4,0,0.7,0,1,0c0.3,0,0.7-0.1,1.2-0.1l0.2,1
        c-0.4,0.1-0.7,0.2-1.1,0.2s-0.8,0.1-1.3,0.1c-1.5,0-2.7-0.5-3.5-1.5s-1.2-2.6-1.2-4.8v-15.8h-4.2v-1.2h4.2v-6.2H211z"/>
      <path d="M220.1,258.3c0-3.3,0.9-6.1,2.8-8.2c1.8-2.1,4.3-3.2,7.2-3.2c3,0,5.4,1.1,7.2,3.2c1.8,2.1,2.8,4.9,2.8,8.2v0.9
        c0,3.4-0.9,6.1-2.8,8.2c-1.9,2.1-4.2,3.2-7.2,3.2c-3,0-5.4-1.1-7.2-3.2s-2.8-4.9-2.8-8.2V258.3z M221.3,259.1
        c0,2.9,0.8,5.3,2.4,7.3c1.6,2,3.8,3,6.5,3c2.7,0,4.8-1,6.4-3c1.6-2,2.4-4.4,2.4-7.3v-0.9c0-2.8-0.8-5.2-2.4-7.2c-1.6-2-3.8-3-6.4-3
        c-2.7,0-4.8,1-6.4,3s-2.4,4.4-2.4,7.2V259.1z"/>
      <path d="M275,262.8c0-1.9-0.7-3.5-2.1-4.6s-3.9-2.2-7.4-3.2c-3.5-0.9-6.1-2-7.7-3.2c-1.6-1.2-2.4-3-2.4-5.3c0-2.3,1-4.1,2.9-5.5
        s4.4-2,7.3-2c3,0,5.4,0.8,7.3,2.5c1.9,1.7,2.8,3.8,2.8,6.5l0,0.1h-1c0-2.3-0.8-4.2-2.5-5.7c-1.7-1.5-3.9-2.3-6.6-2.3
        c-2.8,0-5,0.6-6.6,1.9c-1.6,1.2-2.4,2.7-2.4,4.5c0,1.7,0.7,3.2,2,4.3c1.3,1.2,3.8,2.2,7.3,3.1c3.4,0.9,6,2,7.7,3.3
        c1.7,1.3,2.6,3.1,2.6,5.5c0,2.4-1,4.4-3,5.8s-4.5,2.1-7.4,2.1c-3.1,0-5.7-0.7-8-2.2c-2.2-1.4-3.3-3.7-3.2-6.8l0-0.1h0.9
        c0,2.8,1,4.8,3.1,6.1s4.4,1.9,7.1,1.9c2.7,0,4.9-0.6,6.7-1.9C274.1,266.3,275,264.7,275,262.8z"/>
      <path d="M296.1,265.9c-0.8,1.4-2,2.5-3.5,3.4c-1.6,0.9-3.5,1.3-5.7,1.3c-2.1,0-3.8-0.6-5-1.7c-1.2-1.2-1.8-2.7-1.8-4.7
        c0-1.9,0.9-3.5,2.7-4.8s4.1-1.9,6.8-1.9h6.5V254c0-1.9-0.6-3.4-1.8-4.4s-2.9-1.6-5.1-1.6c-2.1,0-3.7,0.5-5,1.5s-1.9,2.3-1.9,3.9
        l-0.9,0l0-0.1c-0.1-1.8,0.6-3.3,2.1-4.5c1.5-1.2,3.4-1.8,5.8-1.8c2.4,0,4.4,0.6,5.9,1.9c1.5,1.2,2.2,3,2.2,5.4v11.4
        c0,0.8,0,1.6,0.1,2.3s0.2,1.5,0.5,2.3h-1.3c-0.2-1-0.3-1.7-0.4-2.2s-0.1-1-0.1-1.6V265.9z M286.9,269.4c2.3,0,4.2-0.5,5.8-1.5
        c1.6-1,2.7-2.4,3.5-4.3v-5.1h-6.5c-2.4,0-4.4,0.5-6,1.6c-1.6,1.1-2.4,2.4-2.4,4c0,1.5,0.5,2.8,1.6,3.8S285.2,269.4,286.9,269.4z"/>
      <path d="M306,270.1h-1.1v-32.9h1.1V270.1z"/>
      <path d="M319,265.3l1.1,3.1h0.1l1.1-3.1l7-18h1.2l-8.9,22.8l0,0h-1.1l-8.9-22.8h1.2L319,265.3z"/>
      <path d="M332,258.3c0-3.3,0.9-6.1,2.8-8.2c1.8-2.1,4.3-3.2,7.2-3.2c3,0,5.4,1.1,7.2,3.2c1.8,2.1,2.8,4.9,2.8,8.2v0.9
        c0,3.4-0.9,6.1-2.8,8.2c-1.9,2.1-4.2,3.2-7.2,3.2c-3,0-5.4-1.1-7.2-3.2s-2.8-4.9-2.8-8.2V258.3z M333.1,259.1
        c0,2.9,0.8,5.3,2.4,7.3c1.6,2,3.8,3,6.5,3c2.7,0,4.8-1,6.4-3c1.6-2,2.4-4.4,2.4-7.3v-0.9c0-2.8-0.8-5.2-2.4-7.2c-1.6-2-3.8-3-6.4-3
        c-2.7,0-4.8,1-6.4,3s-2.4,4.4-2.4,7.2V259.1z"/>
    </g>
  </symbol>
</svg>
